<svg xmlns="http://www.w3.org/2000/svg" viewBox="0 0 64 64">
  <rect width="64" height="64" rx="14" fill="#1A2B3C"/>
  <g fill="#E67E22" stroke="#E67E22" stroke-width="2" stroke-linecap="round" stroke-linejoin="round">
    <path d="M32 6 L30 12 L34 12 Z"/>
    <path d="M46 10 L42 15 L47 16 Z"/>
    <path d="M18 10 L22 15 L17 16 Z"/>
    <path d="M54 20 L48 21 L50 25 Z"/>
    <path d="M10 20 L16 21 L14 25 Z"/>
    <path d="M54 44 L48 42 L48 47 Z"/>
    <path d="M10 44 L16 42 L16 47 Z"/>
  </g>
  <path d="M32 12 C 20 12, 13 20, 13 31 C 13 41, 21 52, 32 52 C 43 52, 51 41, 51 31 C 51 20, 44 12, 32 12 Z"
        fill="#E67E22" fill-opacity="0.2" stroke="#E67E22" stroke-width="2"/>
  <path d="M23 27 C 23 23, 27 21, 32 21 C 37 21, 41 23, 41 27 L 41 34 C 41 40, 37 44, 32 44 C 27 44, 23 40, 23 34 Z"
        fill="#1A2B3C" stroke="#E67E22" stroke-width="2"/>
  <circle cx="28" cy="30" r="1.8" fill="#E67E22"/>
  <circle cx="36" cy="30" r="1.8" fill="#E67E22"/>
  <path d="M30 35 L34 35 L32 37 Z" fill="#E67E22"/>
  <path d="M32 37 L32 40" stroke="#E67E22" stroke-width="1.6" fill="none"/>
</svg>
